<?xml version="1.0" encoding="utf-8"?>
<svg version="1.1" id="Ebene_1" x="0px" y="0px" viewBox="164.616 200 749.999 598.461" style="enable-background:new 0 0 1000 1000;" xmlns="http://www.w3.org/2000/svg">
  <style type="text/css">
	.st0{fill:#7acaef;}
</style>
  <path class="st0" d="M 909.977 354.147 C 907.977 360.247 904.377 365.747 899.677 370.047 C 865.277 401.147 834.977 436.747 810.077 475.747 C 798.577 493.747 788.177 512.447 779.177 531.347 C 778.677 532.447 777.877 533.347 776.977 534.047 C 751.777 552.547 725.077 568.947 697.177 582.647 C 695.877 583.347 694.577 583.947 693.277 584.547 C 690.677 585.847 687.977 587.147 685.577 588.247 C 683.777 589.147 681.877 590.047 680.177 590.747 C 678.677 591.447 677.177 592.147 675.677 592.747 C 667.077 596.647 657.977 600.247 649.277 603.547 C 648.177 604.047 647.077 604.447 646.377 604.647 C 621.377 613.847 596.277 621.047 570.077 626.447 C 569.977 626.447 569.877 626.447 569.777 626.547 C 547.677 631.047 525.377 634.147 502.877 635.747 C 502.777 635.747 502.277 635.747 502.177 635.747 C 485.377 636.947 465.377 637.547 449.277 636.947 C 442.977 654.147 433.577 671.647 422.977 686.247 C 422.477 687.047 421.877 687.747 421.377 688.447 C 420.677 689.347 420.077 690.247 419.277 691.147 C 413.977 698.247 408.377 704.647 402.177 710.947 C 397.077 716.247 391.377 721.447 385.777 725.947 C 384.277 727.247 382.677 728.547 381.377 729.447 C 379.177 731.247 376.977 732.947 374.777 734.447 C 357.877 746.647 339.477 756.247 319.777 763.047 C 318.777 764.647 317.977 766.247 317.177 767.847 C 316.377 769.347 315.677 770.747 314.877 772.547 C 312.077 778.347 309.877 784.047 308.177 790.247 C 307.777 791.447 307.477 792.647 307.177 794.047 C 306.177 798.047 305.377 801.747 304.877 805.447 C 304.277 810.647 297.577 813.347 293.577 810.047 C 288.977 806.447 283.877 802.247 279.877 797.947 C 276.677 794.747 272.677 790.447 269.577 786.347 C 268.377 784.947 267.377 783.547 266.377 782.147 C 265.677 781.247 265.077 780.247 264.577 779.547 C 262.477 776.647 260.677 773.847 258.977 770.847 C 256.677 779.047 255.277 787.547 254.877 796.147 C 254.677 799.247 252.577 801.847 249.577 802.647 C 246.577 803.447 243.477 802.147 241.777 799.547 C 239.277 795.647 236.677 791.847 233.877 788.147 C 205.477 750.447 163.777 723.547 117.677 713.947 C 113.177 713.147 110.577 707.747 112.777 703.747 C 124.377 681.347 135.177 663.247 149.477 642.747 C 150.677 641.047 152.477 640.047 154.477 639.747 C 170.677 637.847 187.177 636.847 203.577 636.547 C 203.577 635.247 203.477 565.147 203.577 563.847 C 200.977 479.747 253.277 398.547 330.677 365.847 C 330.877 364.647 331.077 363.547 331.377 362.347 C 331.377 361.947 331.477 361.547 331.577 361.147 C 334.477 346.147 338.077 331.147 342.277 316.547 C 344.577 308.247 347.277 299.947 350.077 291.847 C 350.177 291.447 350.377 290.947 350.477 290.647 C 350.577 290.347 350.677 289.947 350.877 289.647 C 351.577 287.547 352.277 285.447 352.977 283.647 C 353.077 283.347 353.177 283.047 353.377 282.747 C 355.377 277.247 357.577 271.447 359.777 266.047 C 349.977 257.247 338.777 250.147 326.577 244.947 C 322.877 243.447 321.177 238.747 322.977 235.247 C 328.577 223.947 335.777 213.547 344.477 204.147 C 345.777 202.647 347.677 201.847 349.677 201.847 L 420.677 201.847 C 424.177 201.847 427.177 204.447 427.777 207.947 C 433.877 228.947 436.677 250.947 435.977 272.847 C 435.977 272.847 435.977 273.347 435.977 273.347 C 435.177 299.047 429.777 323.947 419.977 347.447 C 494.577 386.547 578.477 406.547 662.977 405.747 C 675.277 390.247 688.877 374.947 702.977 360.847 C 702.977 360.847 703.277 360.547 703.277 360.547 C 704.477 359.347 705.677 358.147 706.777 357.147 C 707.977 355.947 709.077 354.847 710.477 353.547 C 710.777 353.247 710.977 353.047 711.277 352.847 C 711.977 352.047 712.777 351.347 713.577 350.647 C 714.177 350.047 714.777 349.447 715.177 349.147 C 721.077 343.447 727.077 338.147 733.277 332.847 C 734.977 331.347 736.677 329.847 738.477 328.447 C 755.477 313.947 773.777 300.647 792.377 288.747 C 791.277 279.647 789.577 270.547 787.277 261.647 C 778.677 254.847 769.377 249.247 759.477 245.047 C 757.677 244.247 756.277 242.847 755.577 240.947 C 754.877 239.147 754.977 237.047 755.877 235.347 C 759.977 226.947 765.177 218.947 771.077 211.647 C 772.877 209.347 774.877 206.947 777.377 204.247 C 778.677 202.847 780.577 201.947 782.577 201.947 L 853.577 201.947 C 856.777 201.947 859.477 204.047 860.377 207.047 C 869.677 238.447 871.477 272.647 865.477 304.847 C 894.177 298.147 919.377 326.347 909.977 354.147 Z M 221.977 703.547 C 215.477 703.547 210.177 708.847 210.177 715.347 C 210.177 721.847 215.477 727.247 221.977 727.247 C 228.477 727.247 233.877 721.847 233.877 715.347 C 233.877 708.747 228.577 703.547 221.977 703.547 Z" transform="matrix(-1, 0, 0, -1, 1023.960083, 1013.338531)"/>
</svg>